<svg id="logo" width="35vw" height="100%" viewBox="0 0 88 88" fill="none" xmlns="http://www.w3.org/2000/svg"><path fill-rule="evenodd" clip-rule="evenodd" d="M60.9044 18.2644C60.5343 17.9551 60.4515 17.7011 60.6006 17.494 60.9044 17.0742 61.5257 17.7259 61.9786 17.1874l4.3604-5.2219C66.7974 11.4187 66.0518 10.9437 66.4135 10.535 66.582 10.3445 66.8333 10.3611 67.2033 10.6704l4.5758 3.8218C72.3673 14.9838 72.3728 15.4311 71.6327 16.3507 71.4532 16.5716 71.2075 16.7373 71.039 16.5661 70.8705 16.3949 70.9506 16.1132 70.8623 15.6327 70.7932 15.271 70.6993 15.0003 70.2879 14.6579l-1.4305-1.1957C68.4929 13.1584 67.9489 13.2109 67.6424 13.5754L66.0849 15.4394l1.9883 1.6597C68.5288 17.4802 69.0728 16.9665 69.3517 17.1985 69.5754 17.3863 69.1971 17.9386 68.8353 18.3721 68.3521 18.952 67.8854 19.4353 67.6617 19.2365 67.3773 18.9852 67.8578 18.4053 67.322 17.9579l-1.9661-1.6431-1.5575 1.864C63.4919 18.5461 63.5388 19.0901 63.9033 19.3939l1.6155 1.3503C65.9385 21.0949 66.3196 21.1087 66.6731 21.0646 67.1177 21.0148 67.3856 20.9044 67.5899 21.0093 67.8661 21.1557 67.7666 21.4235 67.6092 21.5892 66.7891 22.4591 66.2948 22.7711 65.7535 22.3155l-4.8491-4.0511z" fill="#243881"/><path fill-rule="evenodd" clip-rule="evenodd" d="M44.0014 2.22575c-23.0362.0-41.77565 18.74215-41.77565 41.77565S20.9652 85.7742 44.0014 85.7742c23.0335.0 41.7728-18.7393 41.7728-41.7728S67.0349 2.22575 44.0014 2.22575zM44.0014 88C19.7391 88 0 68.2637.0 44.0014.0 19.739 19.7391.0 44.0014.0 68.261.0 88 19.739 88 44.0014 88 68.2637 68.261 88 44.0014 88z" fill="#243881"/><path fill-rule="evenodd" clip-rule="evenodd" d="M44.0014 16.8395c-14.9783.0-27.1619 12.1836-27.1619 27.1619.0 14.9755 12.1836 27.1591 27.1619 27.1591 14.9755.0 27.1591-12.1836 27.1591-27.1591.0-14.9783-12.1836-27.1619-27.1591-27.1619zm0 56.5495c-16.2044.0-29.3876-13.1833-29.3876-29.3876.0-16.2044 13.1832-29.3877 29.3876-29.3877 16.2016.0 29.3876 13.1833 29.3876 29.3877.0 16.2043-13.186 29.3876-29.3876 29.3876z" fill="#243881"/><path fill-rule="evenodd" clip-rule="evenodd" d="M76.1035 43.9738C75.3911 44.0041 75.5678 44.747 75.1398 44.8077 74.8857 44.8436 74.7283 44.6448 74.7062 44.1643L74.6068 41.7618C74.5875 41.3007 74.7007 41.1073 74.9575 41.1239 75.3718 41.1543 75.3055 41.9165 76.0179 41.8861L82.9603 41.5961C83.6728 41.5685 83.5347 40.7843 84.0373 40.7207 84.2968 40.6876 84.4487 40.9058 84.4681 41.389L84.5675 43.786C84.5868 44.2665 84.4349 44.4405 84.1892 44.4322 83.6838 44.4101 83.7611 43.6562 83.0459 43.6838L76.1035 43.9738z" fill="#243881"/><path fill-rule="evenodd" clip-rule="evenodd" d="M83.1343 32.9334C83.3939 33.8889 83.3248 34.5406 83.2889 35.0266 83.2641 35.3497 83.1647 35.7087 83.496 35.9075 83.971 36.2002 83.7473 36.5868 83.3497 36.8077 83.0321 36.9817 82.2893 37.3407 81.494 37.5892 81.2482 37.6638 80.9803 37.6776 80.892 37.4125 80.7428 36.9762 81.3614 36.7277 81.8585 35.7446 82.2202 35.0293 82.3362 34.223 82.0545 33.3117 81.7425 32.29 81.0908 31.8481 80.3507 32.2126 78.669 33.0411 81.204 37.9234 77.5754 39.0031 75.6507 39.5775 74.0104 38.6441 73.3476 36.1974 73.1267 35.3828 73.1598 34.5074 73.273 33.8143 73.3421 33.3918 72.8229 33.3946 72.7484 33.0411 72.6876 32.7594 72.9914 32.4833 73.3228 32.2347 73.8944 31.7984 74.756 31.34 75.253 31.1495 75.786 30.9451 76.0677 31.0501 76.156 31.3704 76.3383 32.0304 74.1236 33.3007 74.5737 35.6645 74.8333 37.0397 75.5513 37.5671 76.4708 37.3186 78.5613 36.7553 75.7528 31.6824 79.2102 30.3763 80.8395 29.7632 82.535 30.7132 83.1343 32.9334z" fill="#243881"/><path fill-rule="evenodd" clip-rule="evenodd" d="M82.6703 54.5171C82.9907 54.495 83.1867 54.3183 83.2475 54.009l1.2565-6.6856C84.5647 47.0114 84.4432 46.7767 84.1533 46.6386 83.8633 46.5033 82.9934 46.252 82.7035 46.1968 82.477 46.1553 82.2589 46.194 82.1816 46.4508 82.0104 47.0031 83.3165 47.7653 83.1729 48.544L83.0984 48.9389C83.0431 49.2289 82.7615 49.4194 82.4715 49.3669l-6.7269-1.2675C75.0432 47.9669 75.2972 47.224 74.9161 47.0998 74.6731 47.0197 74.4964 47.1439 74.4163 47.5775L73.9413 50.1015C73.864 50.513 73.9772 50.7173 74.234 50.7283 74.6151 50.7449 74.6676 49.9662 75.369 50.0987l6.7242 1.2675C82.3859 51.4215 82.5765 51.7004 82.5212 51.9931L82.4494 52.3852C82.3003 53.164 80.8064 53.3987 80.7622 53.9758 80.7428 54.2437 80.9334 54.3597 81.1598 54.4011 81.4498 54.4563 82.35 54.5364 82.6703 54.5171z" fill="#243881"/><path fill-rule="evenodd" clip-rule="evenodd" d="M72.5136 55.0611C72.7069 54.622 72.8975 54.5585 73.1322 54.6607 73.6624 54.8927 73.0411 55.4394 73.6955 55.7239l2.3777 1.041L81.1515 56.0414S81.563 55.9586 81.7673 55.8509C82.2119 55.6217 82.4384 55.3925 82.6869 55.4587 82.9327 55.525 82.9658 55.7901 82.8775 55.9862l-1.2317 2.8222C81.5299 59.079 81.2979 59.1674 81.0935 59.0349 80.8892 58.9023 80.9472 58.5378 80.7207 58.2755 80.5551 58.0849 80.2568 58.1457 80.2568 58.1457l-3.496.497L78.8899 61.5726S79.0694 61.8295 79.271 61.7963C79.5471 61.7549 79.8481 61.2081 80.1684 61.2496 80.359 61.2745 80.4805 61.476 80.3424 61.7935L79.3759 64.0028C79.2737 64.2375 79.0666 64.3866 78.8706 64.2098 78.6634 64.0304 78.7297 63.6162 78.5364 63.1053 78.3983 62.7491 78.2713 62.5944 78.2713 62.5944L75.2613 58.6262 72.8809 57.5878C72.2264 57.3007 72.2485 58.1291 71.7156 57.8971 71.4808 57.795 71.4008 57.6127 71.5913 57.1709L72.5136 55.0611z" fill="#243881"/><path fill-rule="evenodd" clip-rule="evenodd" d="M11.4492 41.2868C11.8882 41.3421 12.2942 41.0328 12.3494 40.5937 12.3494 40.5937 12.3797 40.3618 12.4432 39.8619 12.5951 38.6855 11.7308 37.2689 9.10467 36.932 6.6276 36.6172 5.24131 37.4539 5.06736 38.8264 5.00382 39.3262 4.95967 39.6493 4.95967 39.6493 4.90438 40.0884 5.21922 40.4888 5.66108 40.544L11.4492 41.2868zM5.13361 42.4991C4.38249 42.4025 4.2693 43.2005 3.75287 43.1232 3.53469 43.0873 3.369 42.8802 3.42975 42.4163l.44187-3.4657c.43628-3.3855 2.66479-4.5095 5.39037-4.1615C12.2113 35.1674 14.0504 37.1557 13.6749 40.0939L13.2192 43.67C13.1557 44.1477 12.9569 44.2803 12.7471 44.272 12.2278 44.2471 12.3853 43.4298 11.6783 43.3386L5.13361 42.4991z" fill="#243881"/><path fill-rule="evenodd" clip-rule="evenodd" d="M4.33831 52.1726C4.28313 51.844 4.41839 51.6092 4.65038 51.5927 5.1364 51.5513 5.26616 52.2582 5.84058 52.1615 6.27139 52.087 8.94445 51.6313 10.6566 51.3386 11.96 51.1177 12.99 50.4826 12.689 48.7318c-.2485-1.4525-1.516-1.9413-2.8139-1.7204C8.89195 47.1798 5.24131 47.8039 5.16951 47.815 5.03146 47.8398 4.78843 47.9061 4.67523 48.1049 4.50678 48.4032 4.44324 48.7787 4.18366 48.8643 3.94341 48.9417 3.76113 48.787 3.72523 48.5744l-.3617-2.1125C3.30554 46.1194 3.44914 45.9896 3.66177 45.9648 3.91856 45.9372 4.05937 46.2686 4.41289 46.4784 4.56199 46.5723 4.81049 46.5143 4.96513 46.4867 5.19157 46.448 8.01104 45.9675 9.55747 45.7024 11.3939 45.3904 13.4816 45.8074 13.9952 48.8091c.4832 2.8333-1.0659 4.3438-3.1177 4.6945C9.13778 53.8019 6.61658 54.2326 6.20506 54.3017 5.58103 54.4094 5.73835 55.1992 5.28276 55.2903 5.03972 55.34 4.84918 55.1633 4.79122 54.8208l-.45291-2.6482z" fill="#243881"/><path fill-rule="evenodd" clip-rule="evenodd" d="M19.0377 26.2644C18.6842 26.6648 18.4578 26.6676 18.3086 26.477 18.0711 26.1733 18.7615 25.4857 18.2258 25.0162L12.9652 20.399C12.4294 19.9268 11.96 20.8326 11.5016 20.5012 11.3055 20.3604 11.3221 20.0925 11.4988 19.8937L12.5979 18.64C13.1667 17.9938 13.5478 17.933 14.3763 18.0435 15.561 18.2009 20.551 18.7918 20.551 18.7918L17.1101 15.768C16.5744 15.2986 16.0084 16.0884 15.6134 15.8177 15.4229 15.6907 15.3981 15.4505 15.7184 15.0887l1.3227-1.5105C17.2758 13.3131 17.5161 13.2965 17.668 13.5064 17.9193 13.8488 17.3338 14.4287 17.8723 14.9009l5.7439 5.0425C24.0497 20.3245 24.0525 20.7276 23.7791 21.0645 23.6272 21.2551 23.3538 21.3821 22.9396 21.3352l-8.4584-1.146 4.5123 3.9627C19.5292 24.6213 20.0318 23.8868 20.3853 24.127 20.573 24.2568 20.5786 24.5081 20.2748 24.8533l-1.2371 1.4111z" fill="#243881"/><path fill-rule="evenodd" clip-rule="evenodd" d="M51.0901 12.6945c-.1188.7042.637900000000002.7926.6158 1.1736C51.6921 14.125 51.4905 14.2437 51.0155 14.1636L48.6186 13.7549C48.1546 13.6776 48 13.5009 48.0607 13.2523 48.1602 12.8464 48.9113 13.0507 49.03 12.3466l1.1571-6.83193C50.3058 4.81049 49.5464 4.74974 49.5768 4.3079 49.5934 4.07318 49.8115 3.94891 50.2699 4.02623l2.3942.40594C53.1281 4.51225 53.291 4.68623 53.222 4.93752 53.0894 5.39316 52.3659 5.1612 52.2472 5.86262L51.0901 12.6945z" fill="#243881"/><path fill-rule="evenodd" clip-rule="evenodd" d="M72.9831 22.8457S73.4083 23.5057 73.6734 23.9172C74.3362 24.9444 75.3331 25.494 76.5095 24.7373 77.3241 24.2126 77.5947 23.34 76.689 21.9372 76.1892 21.1612 75.7694 21.0535 75.2917 21.36L72.9831 22.8457zM67.4132 23.8592C67.1508 23.4532 67.1923 23.2378 67.4187 23.1219 67.739 22.9589 68.0897 23.5803 68.6641 23.2102L74.4439 19.4878C75.0431 19.1011 74.5654 18.4688 75.021 18.1926 75.242 18.0601 75.4877 18.1733 75.7473 18.5765L78.1388 22.2906C79.1688 23.884 79.1633 25.748 77.5616 26.6869 76.3548 27.3939 75.1094 26.9299 74.234 26.2976c0 0-1.378 2.4936-1.62649999999999 2.963C72.2761 29.8847 72.6986 30.4867 72.3148 30.785 72.1546 30.9092 71.931 30.8733 71.7901 30.6552L70.0973 28.0262C69.9952 27.8688 69.9814 27.5927 70.205 27.4988 70.4977 27.3801 70.7187 27.7722 71.0169 27.7335 71.2489 27.7031 71.3676 27.4933 71.4477 27.3497 71.5305 27.1923 72.8616 24.7594 72.8616 24.7594L72.0276 23.4643 69.766 24.9196C69.164 25.3062 69.6362 25.8336 69.3324 26.0904 69.1474 26.2423 68.9182 26.1954 68.6586 25.7922l-1.2454-1.933z" fill="#243881"/><path fill-rule="evenodd" clip-rule="evenodd" d="M28.5178 6.60269C28.8326 6.48947 29.0866 6.57783 29.1446 6.80428 29.2689 7.27649 28.5979 7.53054 28.7967 8.07732 28.9458 8.48878 29.8709 11.0376 30.4619 12.6697 30.9092 13.9123 31.699 14.7629 33.3697 14.1553 34.756 13.6527 35.0293 12.3714 34.5792 11.1315 34.2396 10.1954 32.9776 6.71315 32.9527 6.64411 32.9058 6.51156 32.7981 6.28512 32.5799 6.2078 32.2568 6.09458 31.8785 6.09734 31.7487 5.86261 31.6272 5.63893 31.7487 5.43182 31.9475 5.35726l2.0159-.72903C34.292 4.50949 34.4467 4.62547 34.5074 4.83258 34.582 5.07835 34.2782 5.27994 34.1319 5.66379 34.0711 5.82671 34.1705 6.06144 34.223 6.2078 34.3003 6.42319 35.2751 9.11011 35.8108 10.5875 36.446 12.3383 36.4046 14.4701 33.5437 15.5057 30.8402 16.486 29.0784 15.2295 28.3687 13.2717c-.602-1.6597-1.4719-4.06494-1.6127-4.45707C26.5379 8.22091 25.7895 8.51639 25.6155 8.08284 25.5244 7.85364 25.668 7.63548 25.9938 7.51674L28.5178 6.60269z" fill="#243881"/><path fill-rule="evenodd" clip-rule="evenodd" d="M38.379 13.6721C37.846 13.6914 37.6886 13.5285 37.7245 13.291 37.7798 12.9099 38.7546 12.9375 38.727 12.2251L38.4646 5.233C38.437 4.52054 37.4567 4.80221 37.3849 4.24163 37.3517 3.99862 37.5561 3.83017 37.8212 3.81912l1.6679-.06351C40.3479 3.72523 40.6545 3.95996 41.1432 4.63652 41.8447 5.6058 44.8464 9.63479 44.8464 9.63479L44.6752 5.05902C44.6476 4.3438 43.6866 4.47911 43.6092 4.0069 43.5706 3.7777 43.7308 3.5982 44.2113 3.57887L46.2188 3.50431C46.5723 3.49051 46.7491 3.65619 46.7021 3.90749 46.6248 4.32723 45.8046 4.30238 45.8295 5.01484L46.1167 12.6531C46.1388 13.2275 45.8488 13.5091 45.4125 13.545 45.1722 13.5644 44.8906 13.4512 44.642 13.1198L39.6576 6.19123 39.8813 12.1892C39.9089 12.9016 40.7898 12.7635 40.8588 13.1861 40.8947 13.4097 40.7125 13.5837 40.2541 13.603L38.379 13.6721z" fill="#243881"/><path fill-rule="evenodd" clip-rule="evenodd" d="M31.7321 46.6414C31.2157 47.0307 30.5557 47.1577 29.9206 47.1798 28.399 47.3759 26.9879 47.2931 25.5603 46.6911 24.417 45.9261 24.1906 44.8906 24.0221 43.5954 27.1343 43.1812 29.9786 42.5019 33.0963 43.1978 33.135 44.5095 32.8864 45.7743 31.7321 46.6414zM25.0853 36.2251C26.1319 35.3966 27.3277 35.2309 28.6172 35.1895 29.476 35.2724 30.3459 35.2806 31.1964 35.427 31.9558 35.5319 32.5495 36.0456 32.8174 36.7359c.369999999999997.9362.3645 1.5824.2761 2.571C29.9013 39.4422 26.9023 39.7294 23.71 39.6741 23.7184 38.2768 23.9669 37.1888 25.0853 36.2251zM60.2002 25.6707C58.8333 25.5602 56.7428 25.4636 55.3759 25.5851 50.8995 25.7287 48.9058 26.4881 44.4405 26.778 43.7777 26.7725 43.4684 25.9248 43.6313 25.2565 44.0538 23.7957 44.7 23.1909 44.8878 21.6638 45.0424 20.8022 44.6199 19.9241 43.9765 19.369 42.7062 18.5765 40.6987 19.3386 40.4225 20.8574 40.0718 22.2741 39.8233 22.9534 39.05 24.2154 37.9317 25.9772 36.3852 27.4021 35.0763 29.0148 34.7919 29.3932 34.4218 29.7549 34.3942 30.2575 34.4826 31.1522 35.3828 31.8951 36.2831 31.7294 37.8295 31.5223 39.1522 30.5944 40.2734 29.5644 40.4943 29.719 40.7815 29.8184 40.9417 30.0449 39.7542 31.7625 38.1056 33.146 37.0425 34.9658 36.7884 35.4187 36.6282 35.9379 36.2333 36.2969 36.0373 34.883 35.8688 33.32 34.4964 32.5274 31.989 31.0694 27.2806 30.8264 24.0497 32.1298 23.3456 32.4142 22.865 32.6848 22.2438 33.1515 21.4319 33.7618 21.0618 34.7118 20.7912 35.5237 19.9075 38.6634 19.6093 41.8005 20.0649 45.0231 20.3991 47.5692 22.2769 49.8171 24.6904 50.6676 26.154 51.1867 27.739 50.9741 29.2579 50.941 31.4311 50.8692 33.5768 50.4108 35.1702 48.8174c1.3117-1.4415 1.4967-3.4712 1.6928-5.3186C36.9486 42.0159 38.1415 40.8367 38.6772 39.5057 39.1577 38.3707 39.7294 37.0121 40.2237 36.6034 40.718 36.1947 41.0383 36.8188 40.8533 37.0452c-2.1208 4.4101-2.6427 10.4854-2.6704 15.3124C35.5982 52.1974 33.0383 52.3162 30.4591 52.4625 29.1225 52.5371 26.9907 52.5868 24.5468 53.0507 24.0664 53.1419 22.5585 53.6168 22.1002 53.8405 20.8382 54.5613 21.4125 56.3728 22.3984 57.2371 22.9921 57.7535 25.4747 57.262 25.9303 57.1819c5.0203-1.0742 7.594-1.0908 12.1008-.9803C38.1056 58.64 38.136 61.2882 38.6772 64.37 38.912 65.8364 38.9617 67.3469 39.9917 68.5233 40.4998 69.1612 41.4166 69.164 42.1401 68.9762 42.9493 68.6973 43.1011 67.7031 43.1315 66.9575 43.0459 65.6155 42.7587 64.5026 42.6731 63.1605 42.4853 61.1501 42.3749 59.1288 42.3445 57.1074 42.292 53.9565 42.0048 50.7919 42.3473 47.6465 42.3721 46.9092 42.5047 46.183 42.5737 45.4484 42.7974 43.9986 42.9134 42.5185 43.3193 41.1018 43.7446 39.5554 44.4266 38.0808 44.7221 36.4957 44.8188 35.1039 43.7722 33.9772 43.6203 32.6296 43.5209 32.0083 43.9655 31.4726 44.4515 31.1522 45.2385 30.6386 46.1747 30.4536 47.0528 30.1498 48.3203 29.719 49.6624 29.7439 50.9824 29.6224 53.4042 29.5368 54.6966 29.1833 57.1156 29.3932 58.5958 29.4291 59.9627 29.6472 61.4484 29.6334 62.2409 29.661 62.9092 29.2441 62.9838 28.515 63.0832 27.2337 61.8433 25.8088 60.2002 25.6707z" fill="#243881"/><path fill-rule="evenodd" clip-rule="evenodd" d="M59.0155 35.1453C55.5416 35.2503 52.7138 35.4491 49.2399 35.369 48.9914 35.369 48.7456 35.2613 48.6213 35.0569 48.4971 34.8498 48.3755 34.4964 48.7511 34.2396 49.3144 33.8557 50.1346 33.9524 50.7863 33.9165 53.8378 33.7784 56.2099 33.7149 59.2641 33.7646 59.5651 33.7701 59.902 33.7646 60.2333 33.8143 60.7276 33.8861 60.9817 34.3528 60.7801 34.7504 60.5813 35.1481 59.6313 35.1011 59.0155 35.1453zm4.0318-3.1122c-1.6928-1.1239-3.8274-1.2509-5.7964-1.1046C55.6493 30.9672 54.0476 30.8954 52.446 30.9755 50.6068 31.271 49.2371 30.9037 47.4919 31.6852 46.6358 32.1215 45.7825 32.8312 45.6058 33.8226 45.5671 34.6206 45.5975 35.4436 45.8654 36.203 46.0973 36.9099 46.6883 37.5368 47.4422 37.6527 51.1536 38.0863 54.3044 37.6886 58.0269 37.835 59.8384 37.8295 61.835 37.7301 63.3041 36.5371 63.7929 36.2057 63.9171 35.5899 64.0359 35.0487 64.2402 33.9745 63.9917 32.6959 63.0473 32.0331z" fill="#243881"/><path fill-rule="evenodd" clip-rule="evenodd" d="M59.8605 43.0376C59.6148 43.0652 59.1508 43.0984 58.9327 43.1122 56.2623 43.2668 55.1881 43.4353 51.3607 43.416 50.3445 43.4077 49.2565 43.4408 48.4805 43.3331 48.1408 43.2862 47.8426 43.1729 47.8398 42.9465 47.8371 42.7201 47.9889 42.5047 48.2043 42.4191 48.6296 42.2506 49.5105 42.1705 50.5267 42.1512 52.573 42.154 54.6137 42.0021 56.6572 41.9689 57.7977 41.9027 58.8664 41.8032 60.0041 41.9551 60.7387 42.0545 60.7691 42.5461 60.6476 42.698 60.5426 42.8278 60.1781 43.0017 59.8605 43.0376zm4.4847-2.0573C64.0745 40.1546 63.5609 39.5057 62.5281 39.2351 61.0314 38.8457 58.9189 38.7877 56.4473 38.8429 54.4508 38.8871 52.0428 38.9672 50.8692 39.0556 49.6983 39.1412 48.9693 39.1771 48.0884 39.3124 47.0059 39.4781 46.3155 39.9227 45.7853 40.4722 45.4208 40.8505 45.1363 41.3172 44.9596 41.8281 44.562 43.3138 44.8906 44.7249 46.1084 45.6113 46.7794 46.1001 47.7404 46.2078 48.5937 46.194 52.9817 45.9427 57.3945 46.2354 61.7687 45.7494 62.8153 45.6362 63.7376 44.9458 64.2485 44.04 64.7622 43.1039 64.6655 41.9662 64.3452 40.9803z" fill="#243881"/><path fill-rule="evenodd" clip-rule="evenodd" d="M59.3331 54.7711C58.3058 54.8926 56.591 55.1053 55.4146 55.224 55.3759 54.4536 55.3869 53.9703 55.4063 53.2026 56.7014 53.1115 58.477 52.7028 59.7805 52.8574 59.739 53.6003 59.7749 54.1305 59.3331 54.7711zm4.0815-7.0445C62.7905 47.5112 62.2133 47.9365 61.7301 48.2734 61.059 48.8699 60.5371 50.0242 59.7556 50.1015 58.6013 50.2175 56.8091 50.4632 55.5361 50.5682 55.8702 50.0242 56.1878 49.5823 56.5689 49.1156 57.2454 48.4142 57.4553 47.8592 57.1571 47.3869 56.9527 47.0611 56.5854 46.9562 56.0939 46.9921 53.2579 47.1936 50.0407 47.2157 47.0777 47.4919 46.125 47.5802 46.3045 49.3089 47.1936 49.6928 48.2679 50.1595 50.223 49.6735 51.2944 49.6873 51.2447 50.1871 51.1757 50.6703 51.1757 50.9879 49.795 51.2613 49.2427 51.2779 47.7625 51.5319 46.0946 51.8329 44.7359 51.9461 44.0704 52.5675 43.5154 53.0839 43.3248 53.7991 43.5678 54.4978 43.7004 54.8871 44.5647 55.7791 45.8681 55.4422 46.8291 55.1909 47.7294 54.727 48.3562 54.4867 49.3366 54.1139 50.2644 53.8792 51.137 53.8074 51.2392 54.5916 51.2585 54.7435 51.2558 55.5278 49.8088 55.7625 48.8119 56.069 47.5444 56.4391 46.7352 56.7097 45.523 57.1791 44.99 57.5851 44.4874 57.9689 43.8108 58.4384 43.7418 59.0238 43.4601 60.261 44.5509 61.476 45.1999 61.3904 46.1332 61.2634 47.3179 60.515 48.0911 60.0677c1.2758-.7346 2.3611-1.3145 3.7833-1.4194C52.0897 59.1426 52.2803 60.3907 52.5343 61.0618 53.0093 62.3321 53.7025 63.5582 54.6414 64.8367 55.2516 65.6734 56.4032 66.1788 57.1957 65.7287 58.0076 65.2648 57.795 63.804 57.5961 63.0694 57.0273 61.2219 56.5661 61.1916 56.1022 59.3165 56.0663 59.1149 55.757 58.2727 55.7653 58.0683 56.3341 57.8723 57.7922 57.6182 58.6234 57.6707 60.1477 57.7646 60.6531 58.0794 61.592 57.7812 62.1609 57.5989 62.3348 57.2068 62.4039 57.0135 63.2295 54.6634 63.8813 52.5454 64.533 50.1401 64.8091 49.2289 64.3369 48.0635 63.4146 47.7266z" fill="#243881"/><path fill-rule="evenodd" clip-rule="evenodd" d="M12.4709 29.059l-3.47671-.2181L11.4851 31.271 12.4709 29.059zm-.2044 2.9797s1.1267 1.0963 1.4415 1.4138C14.2079 33.9496 14.5171 33.0604 14.9396 33.1902 15.1909 33.2703 15.213 33.505 15.1053 33.748L14.2851 35.5872C14.1858 35.8053 14.0173 35.9379 13.8157 35.855 13.4401 35.7031 13.708 35.0542 13.2331 34.5737 12.794 34.1291 7.32068 28.6255 7.08877 28.3907 6.82919 28.1256 6.73533 27.7473 6.92308 27.3331 7.13569 26.8692 7.5886 26.7725 7.91995 26.7836 8.75115 26.8112 16.2265 27.2254 16.6462 27.2392 17.0715 27.253 17.3669 26.7698 17.7177 26.8995 17.9634 26.9907 17.9828 27.2917 17.8723 27.5375l-1.1322 2.5433C16.6241 30.3431 16.1933 30.379 16.1243 29.9151 16.069 29.534 15.9697 29.2882 15.4864 29.2551 15.2158 29.2358 13.5616 29.1308 13.5616 29.1308l-1.2951 2.9079z" fill="#243881"/><path fill-rule="evenodd" clip-rule="evenodd" d="M64.2541 8.82292C64.6572 9.00241 64.7925 9.21229 64.6904 9.43044 64.533 9.75906 64.0856 9.5768 63.5775 9.81981 63.3041 9.94684 62.9672 10.3555 62.9672 10.3555s-4.9596 5.1032-5.3407 5.4981C57.2399 16.2541 56.8091 16.5551 56.0359 16.2126 55.3013 15.8868 55.2516 15.2323 55.271 14.7684 55.2931 14.3017 55.7018 7.58302 55.7018 7.58302S55.7459 7.03072 55.7128 6.70211C55.6493 6.04763 55.0694 5.64722 55.2654 5.25785 55.3759 5.03693 55.6134 4.99827 55.9558 5.15015L58.582 6.3155C58.9493 6.47566 59.0376 6.66068 58.9437 6.88712 58.8195 7.18536 58.2948 7.15499 58.049 7.34001 57.8226 7.51122 57.7397 8.09389 57.7397 8.09389L57.3614 14.2106l4.3659-4.51505S62.0338 9.36141 62.0338 9.09907C62.0338 8.65999 61.4373 8.39489 61.6334 8.03314 61.7328 7.8564 61.9537 7.8067 62.2354 7.93096l2.0187.89196z" fill="#243881"/><path fill-rule="evenodd" clip-rule="evenodd" d="M17.6431 59.7722C17.8419 60.2113 17.7812 60.457 17.541 60.5427 17.146 60.6862 16.8947 59.9268 16.2431 60.2195L10.0159 63.0142C9.36423 63.3069 9.7674 64.0248 9.29521 64.2403 9.07979 64.3369 8.8478 64.2706 8.649 63.8316L6.18576 58.3473C5.81294 57.5133 6.63865 57.0715 7.12467 56.8395 7.47532 56.6738 7.77914 56.6462 7.8923 56.9361 7.95305 57.0908 7.86474 57.3062 7.6797 57.7315 7.47811 58.2037 7.39247 58.3887 7.62996 58.9161l.78156 1.737C8.57442 61.0176 9.00523 61.1805 9.37248 61.0148l2.27822-1.0245L10.7229 57.922C10.4412 57.2951 9.61823 57.7839 9.48297 57.2316 9.41117 56.9361 9.9828 56.5992 10.4136 56.4032 11.1868 56.0552 11.8634 55.7957 12.0291 56.0939 12.2555 56.5026 11.4574 56.7705 11.7639 57.4553L12.6918 59.5237l2.7283-1.2234C16.0277 58.0269 15.5803 57.2648 16.0056 57.0742 16.232 56.972 16.4529 57.1184 16.649 57.5547l.9941 2.2175z" fill="#243881"/><path fill-rule="evenodd" clip-rule="evenodd" d="M24.8561 77.3738C24.5164 77.9261 24.5496 78.3403 24.9886 78.7987 25.3974 79.2268 25.541 79.5278 25.3808 79.7708 25.1874 80.0607 24.8561 79.9227 24.6158 79.7736L20.689 77.3545C20.2417 77.0783 20.1837 76.8298 20.3383 76.6089 20.5233 76.341 21.0287 76.4653 21.465 76.5703 22.3404 76.7856 22.5503 76.504 22.7877 76.1146l2.6483-4.2941C25.8972 71.0721 25.5603 70.796 25.2759 70.5585 25.077 70.3928 24.9168 70.2713 24.7153 70.1139 24.5109 69.951 24.3618 69.6804 24.5937 69.4345 24.8368 69.1805 25.4333 69.4484 26.1788 69.6334 27.4021 69.9372 27.855 69.7577 28.3714 70.0504 28.8685 70.3293 28.9182 70.7877 28.6917 71.1522L24.8561 77.3738z" fill="#243881"/><path fill-rule="evenodd" clip-rule="evenodd" d="M38.0642 77.2219C38.2796 76.1892 38.2106 74.8802 36.9265 74.6123 35.7031 74.3556 35.0597 75.3193 34.8333 76.5454 34.6648 77.4732 34.8416 78.7739 36.0207 79.0362 37.2219 79.3041 37.7963 78.4978 38.0642 77.2219zM35.068 80.0994C33.0107 79.6548 31.9172 78.2713 32.3452 76.2278 32.8643 73.7508 35.1177 73.146 37.0756 73.5575 39.63 74.0932 40.9196 76.1892 40.4004 78.6745 39.6659 82.1788 36.2527 84.0345 32.9002 83.5126 32.5468 83.4574 32.0607 83.3082 32.0884 83.0211 32.1243 82.6593 32.8892 82.6345 33.6293 82.4273 35.7805 81.8198 36.6227 80.9665 37.0259 80.0386 36.4543 80.2734 35.681 80.2347 35.068 80.0994z" fill="#243881"/><path fill-rule="evenodd" clip-rule="evenodd" d="M60.4073 74.6289C60.8795 73.8502 61.3738 73.3697 61.9731 72.9279 63.5941 71.7266 65.632 71.4809 66.8554 73.1543 68.5067 75.4104 67.2862 77.7632 64.892 79.1578 63.4146 80.0165 61.8599 79.884 61.1833 79.213 60.7553 78.7877 60.8933 78.0918 61.4346 77.7825 61.8985 77.5147 62.3624 77.6804 62.8015 77.9952 63.525 78.5143 64.0525 78.4177 64.5302 78.1471 65.5326 77.5754 65.7701 76.4184 64.776 75.0155 64.0387 73.9772 63.039 73.806 62.0532 74.5654 61.2358 75.1951 60.9071 76.2223 60.4543 76.5095 60.1256 76.7193 59.8826 76.4681 59.7225 76.2002L57.505 72.196C57.389 71.9945 57.4498 71.7377 57.6431 71.6106L62.7076 68.2251C62.9092 68.0897 63.1854 68.1837 63.2627 68.4128L63.7128 69.6224C63.7874 69.8433 63.7045 70.0863 63.5112 70.2161L59.4712 72.9141 60.4073 74.6289z" fill="#243881"/><path fill-rule="evenodd" clip-rule="evenodd" d="M51.2254 83.0735C52.3659 82.8443 52.6862 81.3062 52.1395 78.5806 51.5927 75.8605 50.6952 74.5295 49.5519 74.7615 48.4115 74.9907 48.0414 76.573 48.5882 79.2931 49.1129 81.9082 50.1539 83.2917 51.2254 83.0735zM49.3172 73.7425C52.0649 73.1874 54.1774 74.8001 54.8181 77.9841 55.4035 80.9002 54.4453 83.4712 51.4795 84.1201 48.9113 84.6807 46.5116 83.1453 45.8819 79.7487 45.2385 76.2996 46.9423 74.2175 49.3172 73.7425z" fill="#243881"/></svg>